<?xml version="1.0" encoding="UTF-8" ?>
<svg xmlns="http://www.w3.org/2000/svg" xmlns:xlink="http://www.w3.org/1999/xlink" class="plot-a08d15163ff1b" fill="currentColor" font-family="system-ui, sans-serif" font-size="10" text-anchor="middle" width="775" height="1000" viewBox="0 0 775 1000" style="font-family: &quot;GDS Transport&quot;; font-size: 14px; overflow: visible;"><style>
        .plot-a08d15163ff1b {
          display: block;
          background: white;
          height: auto;
          height: intrinsic;
          max-width: 100%;
        }
        .plot-a08d15163ff1b text,
        .plot-a08d15163ff1b tspan {
          white-space: pre;
        }
      </style><g aria-label="y-grid" stroke="currentColor" stroke-opacity="0.1"><line x1="309" x2="775" y1="30" y2="30"></line><line x1="309" x2="775" y1="53" y2="53"></line><line x1="309" x2="775" y1="76" y2="76"></line><line x1="309" x2="775" y1="99" y2="99"></line><line x1="309" x2="775" y1="122" y2="122"></line><line x1="309" x2="775" y1="145" y2="145"></line><line x1="309" x2="775" y1="168" y2="168"></line><line x1="309" x2="775" y1="191" y2="191"></line><line x1="309" x2="775" y1="214" y2="214"></line><line x1="309" x2="775" y1="237" y2="237"></line><line x1="309" x2="775" y1="260" y2="260"></line><line x1="309" x2="775" y1="283" y2="283"></line><line x1="309" x2="775" y1="306" y2="306"></line><line x1="309" x2="775" y1="329" y2="329"></line><line x1="309" x2="775" y1="352" y2="352"></line><line x1="309" x2="775" y1="375" y2="375"></line><line x1="309" x2="775" y1="398" y2="398"></line><line x1="309" x2="775" y1="421" y2="421"></line><line x1="309" x2="775" y1="444" y2="444"></line><line x1="309" x2="775" y1="467" y2="467"></line><line x1="309" x2="775" y1="490" y2="490"></line><line x1="309" x2="775" y1="513" y2="513"></line><line x1="309" x2="775" y1="536" y2="536"></line><line x1="309" x2="775" y1="559" y2="559"></line><line x1="309" x2="775" y1="582" y2="582"></line><line x1="309" x2="775" y1="605" y2="605"></line><line x1="309" x2="775" y1="628" y2="628"></line><line x1="309" x2="775" y1="651" y2="651"></line><line x1="309" x2="775" y1="674" y2="674"></line><line x1="309" x2="775" y1="697" y2="697"></line><line x1="309" x2="775" y1="720" y2="720"></line><line x1="309" x2="775" y1="743" y2="743"></line><line x1="309" x2="775" y1="766" y2="766"></line><line x1="309" x2="775" y1="789" y2="789"></line><line x1="309" x2="775" y1="812" y2="812"></line><line x1="309" x2="775" y1="835" y2="835"></line><line x1="309" x2="775" y1="858" y2="858"></line><line x1="309" x2="775" y1="881" y2="881"></line><line x1="309" x2="775" y1="904" y2="904"></line><line x1="309" x2="775" y1="927" y2="927"></line><line x1="309" x2="775" y1="950" y2="950"></line></g><g aria-label="y-axis tick" fill="none" stroke="currentColor"><path transform="translate(309,30)" d="M0,0L-6,0"></path><path transform="translate(309,53)" d="M0,0L-6,0"></path><path transform="translate(309,76)" d="M0,0L-6,0"></path><path transform="translate(309,99)" d="M0,0L-6,0"></path><path transform="translate(309,122)" d="M0,0L-6,0"></path><path transform="translate(309,145)" d="M0,0L-6,0"></path><path transform="translate(309,168)" d="M0,0L-6,0"></path><path transform="translate(309,191)" d="M0,0L-6,0"></path><path transform="translate(309,214)" d="M0,0L-6,0"></path><path transform="translate(309,237)" d="M0,0L-6,0"></path><path transform="translate(309,260)" d="M0,0L-6,0"></path><path transform="translate(309,283)" d="M0,0L-6,0"></path><path transform="translate(309,306)" d="M0,0L-6,0"></path><path transform="translate(309,329)" d="M0,0L-6,0"></path><path transform="translate(309,352)" d="M0,0L-6,0"></path><path transform="translate(309,375)" d="M0,0L-6,0"></path><path transform="translate(309,398)" d="M0,0L-6,0"></path><path transform="translate(309,421)" d="M0,0L-6,0"></path><path transform="translate(309,444)" d="M0,0L-6,0"></path><path transform="translate(309,467)" d="M0,0L-6,0"></path><path transform="translate(309,490)" d="M0,0L-6,0"></path><path transform="translate(309,513)" d="M0,0L-6,0"></path><path transform="translate(309,536)" d="M0,0L-6,0"></path><path transform="translate(309,559)" d="M0,0L-6,0"></path><path transform="translate(309,582)" d="M0,0L-6,0"></path><path transform="translate(309,605)" d="M0,0L-6,0"></path><path transform="translate(309,628)" d="M0,0L-6,0"></path><path transform="translate(309,651)" d="M0,0L-6,0"></path><path transform="translate(309,674)" d="M0,0L-6,0"></path><path transform="translate(309,697)" d="M0,0L-6,0"></path><path transform="translate(309,720)" d="M0,0L-6,0"></path><path transform="translate(309,743)" d="M0,0L-6,0"></path><path transform="translate(309,766)" d="M0,0L-6,0"></path><path transform="translate(309,789)" d="M0,0L-6,0"></path><path transform="translate(309,812)" d="M0,0L-6,0"></path><path transform="translate(309,835)" d="M0,0L-6,0"></path><path transform="translate(309,858)" d="M0,0L-6,0"></path><path transform="translate(309,881)" d="M0,0L-6,0"></path><path transform="translate(309,904)" d="M0,0L-6,0"></path><path transform="translate(309,927)" d="M0,0L-6,0"></path><path transform="translate(309,950)" d="M0,0L-6,0"></path></g><g aria-label="y-axis tick label" text-anchor="end" transform="translate(-9,0)"><text y="0.32em" transform="translate(309,30)">Inner London - East</text><text y="0.32em" transform="translate(309,53)">Outer London - West and North West</text><text y="0.32em" transform="translate(309,76)">Surrey, East and West Sussex</text><text y="0.32em" transform="translate(309,99)">Inner London - West</text><text y="0.32em" transform="translate(309,122)">North Yorkshire</text><text y="0.32em" transform="translate(309,145)">Cheshire</text><text y="0.32em" transform="translate(309,168)">Bedfordshire and Hertfordshire</text><text y="0.32em" transform="translate(309,191)">Outer London - East and North East</text><text y="0.32em" transform="translate(309,214)">Merseyside</text><text y="0.32em" transform="translate(309,237)">Devon</text><text y="0.32em" transform="translate(309,260)">Eastern Scotland</text><text y="0.32em" transform="translate(309,283)">West Midlands</text><text y="0.32em" transform="translate(309,306)">Herefordshire, Worcestershire and Warwickshire</text><text y="0.32em" transform="translate(309,329)">Essex</text><text y="0.32em" transform="translate(309,352)">Kent</text><text y="0.32em" transform="translate(309,375)">Leicestershire, Rutland and Northamptonshire</text><text y="0.32em" transform="translate(309,398)">Lancashire</text><text y="0.32em" transform="translate(309,421)">West Yorkshire</text><text y="0.32em" transform="translate(309,444)">Northern Ireland</text><text y="0.32em" transform="translate(309,467)">East Wales</text><text y="0.32em" transform="translate(309,490)">Shropshire and Staffordshire</text><text y="0.32em" transform="translate(309,513)">Berkshire, Buckinghamshire and Oxfordshire</text><text y="0.32em" transform="translate(309,536)">Tees Valley and Durham</text><text y="0.32em" transform="translate(309,559)">Gloucestershire, Wiltshire and Bath/Bristol area</text><text y="0.32em" transform="translate(309,582)">Highlands and Islands</text><text y="0.32em" transform="translate(309,605)">Outer London - South</text><text y="0.32em" transform="translate(309,628)">East Yorkshire and Northern Lincolnshire</text><text y="0.32em" transform="translate(309,651)">Cumbria</text><text y="0.32em" transform="translate(309,674)">Dorset and Somerset</text><text y="0.32em" transform="translate(309,697)">Greater Manchester</text><text y="0.32em" transform="translate(309,720)">Cornwall and Isles of Scilly</text><text y="0.32em" transform="translate(309,743)">North Eastern Scotland</text><text y="0.32em" transform="translate(309,766)">West Wales and The Valleys</text><text y="0.32em" transform="translate(309,789)">Lincolnshire</text><text y="0.32em" transform="translate(309,812)">South Yorkshire</text><text y="0.32em" transform="translate(309,835)">Northumberland and Tyne and Wear</text><text y="0.32em" transform="translate(309,858)">Southern Scotland</text><text y="0.32em" transform="translate(309,881)">Derbyshire and Nottinghamshire</text><text y="0.32em" transform="translate(309,904)">West Central Scotland</text><text y="0.32em" transform="translate(309,927)">Hampshire and Isle of Wight</text><text y="0.32em" transform="translate(309,950)">East Anglia</text></g><g aria-label="y-axis label" transform="translate(-306,0)"><text y="0.71em" transform="translate(309,490) rotate(-90)"></text></g><g aria-label="x-grid" stroke="currentColor" stroke-opacity="0.1"><line x1="382.68471640892415" x2="382.68471640892415" y1="10" y2="970"></line><line x1="505.5528643950762" x2="505.5528643950762" y1="10" y2="970"></line><line x1="628.4210123812283" x2="628.4210123812283" y1="10" y2="970"></line><line x1="751.2891603673803" x2="751.2891603673803" y1="10" y2="970"></line></g><g aria-label="x-axis tick" fill="none" stroke="currentColor"><path transform="translate(382.68471640892415,970)" d="M0,0L0,6"></path><path transform="translate(505.5528643950762,970)" d="M0,0L0,6"></path><path transform="translate(628.4210123812283,970)" d="M0,0L0,6"></path><path transform="translate(751.2891603673803,970)" d="M0,0L0,6"></path></g><g aria-label="x-axis tick label" font-variant="tabular-nums" transform="translate(0,9)"><text y="0.71em" transform="translate(382.68471640892415,970)">−0.05</text><text y="0.71em" transform="translate(505.5528643950762,970)">0.00</text><text y="0.71em" transform="translate(628.4210123812283,970)">0.05</text><text y="0.71em" transform="translate(751.2891603673803,970)">0.10</text></g><g aria-label="x-axis label" text-anchor="end" transform="translate(-3,27)"><text transform="translate(775,970)"></text></g><g aria-label="rule" stroke="currentColor"><line x1="449.2545806933029" x2="682.6010492117202" y1="99" y2="99"></line><line x1="522.5232164058867" x2="730.0921440658461" y1="30" y2="30"></line><line x1="383.3997107356852" x2="597.4804536498738" y1="605" y2="605"></line><line x1="439.61493556941974" x2="635.210214766351" y1="191" y2="191"></line><line x1="491.2797139688576" x2="699.27248759211" y1="53" y2="53"></line><line x1="458.12487462175596" x2="645.6381819277133" y1="168" y2="168"></line><line x1="413.62065529791425" x2="585.3457004712062" y1="513" y2="513"></line><line x1="448.38477250007935" x2="661.9935051369644" y1="145" y2="145"></line><line x1="364.32064642187703" x2="593.8043369566465" y1="720" y2="720"></line><line x1="373.211385610155" x2="594.9887859032331" y1="651" y2="651"></line><line x1="364.2138985749067" x2="541.8149900574884" y1="881" y2="881"></line><line x1="436.5464755888728" x2="636.7944275192253" y1="237" y2="237"></line><line x1="382.7424152912184" x2="579.6092323780288" y1="674" y2="674"></line><line x1="341.7588107325127" x2="514.090726262338" y1="950" y2="950"></line><line x1="382.31090235549107" x2="592.2784128531769" y1="628" y2="628"></line><line x1="417.6610514762909" x2="606.7734140073992" y1="329" y2="329"></line><line x1="408.94655435948425" x2="576.7991886863263" y1="559" y2="559"></line><line x1="394.5136753408837" x2="567.3464997364189" y1="697" y2="697"></line><line x1="349.074576852645" x2="536.1158738812987" y1="927" y2="927"></line><line x1="419.3130874468535" x2="618.6073859597966" y1="306" y2="306"></line><line x1="416.356191744678" x2="604.9869111356805" y1="352" y2="352"></line><line x1="413.7219969463732" x2="603.3256354803895" y1="398" y2="398"></line><line x1="417.4460813645743" x2="603.5529907014229" y1="375" y2="375"></line><line x1="358.65386914223734" x2="574.1602757511389" y1="789" y2="789"></line><line x1="438.7991893613101" x2="635.8490308413607" y1="214" y2="214"></line><line x1="459.4091907990256" x2="671.3996024851556" y1="122" y2="122"></line><line x1="434.89394814571824" x2="571.6902327985437" y1="444" y2="444"></line><line x1="365.10847698676423" x2="556.2052092551081" y1="835" y2="835"></line><line x1="404.0905102675164" x2="595.5147598711321" y1="490" y2="490"></line><line x1="368.1133404139136" x2="562.292588778934" y1="812" y2="812"></line><line x1="481.3035084140108" x2="655.8895138395308" y1="76" y2="76"></line><line x1="396.57736875445914" x2="593.4441858412695" y1="536" y2="536"></line><line x1="446.02540917519" x2="608.0694272323572" y1="283" y2="283"></line><line x1="419.59588077625835" x2="594.82728800952" y1="421" y2="421"></line><line x1="383.5404684860181" x2="556.9897961008885" y1="766" y2="766"></line><line x1="400.53450947576033" x2="603.7397502863619" y1="467" y2="467"></line><line x1="372.7453712984732" x2="608.5771184198359" y1="582" y2="582"></line><line x1="441.48351436399315" x2="629.4688319472541" y1="260" y2="260"></line><line x1="351.6671930696712" x2="547.6285210530827" y1="904" y2="904"></line><line x1="349.0017406145188" x2="566.9548943751574" y1="858" y2="858"></line><line x1="361.42420184851073" x2="592.670706276067" y1="743" y2="743"></line></g><g aria-label="dot" fill="#1d70b8" stroke="#1d70b8" stroke-width="4"><circle cx="565.9278149525115" cy="99" r="3"><title>Value: 0.024569
Area name: Inner London - West</title></circle><circle cx="626.3076802358664" cy="30" r="3"><title>Value: 0.04914
Area name: Inner London - East</title></circle><circle cx="490.44008219277947" cy="605" r="3"><title>Value: -0.00615
Area name: Outer London - South</title></circle><circle cx="537.4125751678854" cy="191" r="3"><title>Value: 0.012965
Area name: Outer London - East and North East</title></circle><circle cx="595.2761007804838" cy="53" r="3"><title>Value: 0.036512
Area name: Outer London - West and North West</title></circle><circle cx="551.8815282747346" cy="168" r="3"><title>Value: 0.018853
Area name: Bedfordshire and Hertfordshire</title></circle><circle cx="499.4831778845603" cy="513" r="3"><title>Value: -0.00247
Area name: Berkshire, Buckinghamshire and Oxfordshire</title></circle><circle cx="555.1891388185219" cy="145" r="3"><title>Value: 0.020199
Area name: Cheshire</title></circle><circle cx="479.0624916892618" cy="720" r="3"><title>Value: -0.01078
Area name: Cornwall and Isles of Scilly</title></circle><circle cx="484.10008575669406" cy="651" r="3"><title>Value: -0.00873
Area name: Cumbria</title></circle><circle cx="453.01444431619757" cy="881" r="3"><title>Value: -0.02138
Area name: Derbyshire and Nottinghamshire</title></circle><circle cx="536.670451554049" cy="237" r="3"><title>Value: 0.012663
Area name: Devon</title></circle><circle cx="481.1758238346236" cy="674" r="3"><title>Value: -0.00992
Area name: Dorset and Somerset</title></circle><circle cx="427.9247684974253" cy="950" r="3"><title>Value: -0.03159
Area name: East Anglia</title></circle><circle cx="487.2946576043339" cy="628" r="3"><title>Value: -0.00743
Area name: East Yorkshire and Northern Lincolnshire</title></circle><circle cx="512.217232741845" cy="329" r="3"><title>Value: 0.002712
Area name: Essex</title></circle><circle cx="492.87287152290526" cy="559" r="3"><title>Value: -0.00516
Area name: Gloucestershire, Wiltshire and Bath/Bristol area</title></circle><circle cx="480.93008753865126" cy="697" r="3"><title>Value: -0.01002
Area name: Greater Manchester</title></circle><circle cx="442.5952253669718" cy="927" r="3"><title>Value: -0.02562
Area name: Hampshire and Isle of Wight</title></circle><circle cx="518.9602367033251" cy="306" r="3"><title>Value: 0.005456
Area name: Herefordshire, Worcestershire and Warwickshire</title></circle><circle cx="510.6715514401793" cy="352" r="3"><title>Value: 0.002083
Area name: Kent</title></circle><circle cx="508.5238162133813" cy="398" r="3"><title>Value: 0.001209
Area name: Lancashire</title></circle><circle cx="510.49953603299866" cy="375" r="3"><title>Value: 0.002013
Area name: Leicestershire, Rutland and Northamptonshire</title></circle><circle cx="466.40707244668806" cy="789" r="3"><title>Value: -0.01593
Area name: Lincolnshire</title></circle><circle cx="537.3241101013352" cy="214" r="3"><title>Value: 0.012929
Area name: Merseyside</title></circle><circle cx="565.4043966420905" cy="122" r="3"><title>Value: 0.024356
Area name: North Yorkshire</title></circle><circle cx="503.2920904721309" cy="444" r="3"><title>Value: -0.00092
Area name: Northern Ireland</title></circle><circle cx="460.6568431209362" cy="835" r="3"><title>Value: -0.01827
Area name: Northumberland and Tyne and Wear</title></circle><circle cx="499.8026350693243" cy="490" r="3"><title>Value: -0.00234
Area name: Shropshire and Staffordshire</title></circle><circle cx="465.20296459642384" cy="812" r="3"><title>Value: -0.01642
Area name: South Yorkshire</title></circle><circle cx="568.5965111267708" cy="76" r="3"><title>Value: 0.025655
Area name: Surrey, East and West Sussex</title></circle><circle cx="495.0107772978643" cy="536" r="3"><title>Value: -0.00429
Area name: Tees Valley and Durham</title></circle><circle cx="527.0474182037735" cy="283" r="3"><title>Value: 0.008747
Area name: West Midlands</title></circle><circle cx="507.2115843928892" cy="421" r="3"><title>Value: 0.000675
Area name: West Yorkshire</title></circle><circle cx="470.26513229345323" cy="766" r="3"><title>Value: -0.01436
Area name: West Wales and The Valleys</title></circle><circle cx="502.13712988106107" cy="467" r="3"><title>Value: -0.00139
Area name: East Wales</title></circle><circle cx="490.6612448591546" cy="582" r="3"><title>Value: -0.00606
Area name: Highlands and Islands</title></circle><circle cx="535.4761731556237" cy="260" r="3"><title>Value: 0.012177
Area name: Eastern Scotland</title></circle><circle cx="449.647857061377" cy="904" r="3"><title>Value: -0.02275
Area name: West Central Scotland</title></circle><circle cx="457.97831749483805" cy="858" r="3"><title>Value: -0.01936
Area name: Southern Scotland</title></circle><circle cx="477.04745406228886" cy="743" r="3"><title>Value: -0.0116
Area name: North Eastern Scotland</title></circle></g><g aria-label="text"><text y="0.32em" transform="translate(449.2545806933029,99)">|</text><text y="0.32em" transform="translate(522.5232164058867,30)">|</text><text y="0.32em" transform="translate(383.3997107356852,605)">|</text><text y="0.32em" transform="translate(439.61493556941974,191)">|</text><text y="0.32em" transform="translate(491.2797139688576,53)">|</text><text y="0.32em" transform="translate(458.12487462175596,168)">|</text><text y="0.32em" transform="translate(413.62065529791425,513)">|</text><text y="0.32em" transform="translate(448.38477250007935,145)">|</text><text y="0.32em" transform="translate(364.32064642187703,720)">|</text><text y="0.32em" transform="translate(373.211385610155,651)">|</text><text y="0.32em" transform="translate(364.2138985749067,881)">|</text><text y="0.32em" transform="translate(436.5464755888728,237)">|</text><text y="0.32em" transform="translate(382.7424152912184,674)">|</text><text y="0.32em" transform="translate(341.7588107325127,950)">|</text><text y="0.32em" transform="translate(382.31090235549107,628)">|</text><text y="0.32em" transform="translate(417.6610514762909,329)">|</text><text y="0.32em" transform="translate(408.94655435948425,559)">|</text><text y="0.32em" transform="translate(394.5136753408837,697)">|</text><text y="0.32em" transform="translate(349.074576852645,927)">|</text><text y="0.32em" transform="translate(419.3130874468535,306)">|</text><text y="0.32em" transform="translate(416.356191744678,352)">|</text><text y="0.32em" transform="translate(413.7219969463732,398)">|</text><text y="0.32em" transform="translate(417.4460813645743,375)">|</text><text y="0.32em" transform="translate(358.65386914223734,789)">|</text><text y="0.32em" transform="translate(438.7991893613101,214)">|</text><text y="0.32em" transform="translate(459.4091907990256,122)">|</text><text y="0.32em" transform="translate(434.89394814571824,444)">|</text><text y="0.32em" transform="translate(365.10847698676423,835)">|</text><text y="0.32em" transform="translate(404.0905102675164,490)">|</text><text y="0.32em" transform="translate(368.1133404139136,812)">|</text><text y="0.32em" transform="translate(481.3035084140108,76)">|</text><text y="0.32em" transform="translate(396.57736875445914,536)">|</text><text y="0.32em" transform="translate(446.02540917519,283)">|</text><text y="0.32em" transform="translate(419.59588077625835,421)">|</text><text y="0.32em" transform="translate(383.5404684860181,766)">|</text><text y="0.32em" transform="translate(400.53450947576033,467)">|</text><text y="0.32em" transform="translate(372.7453712984732,582)">|</text><text y="0.32em" transform="translate(441.48351436399315,260)">|</text><text y="0.32em" transform="translate(351.6671930696712,904)">|</text><text y="0.32em" transform="translate(349.0017406145188,858)">|</text><text y="0.32em" transform="translate(361.42420184851073,743)">|</text></g><g aria-label="text"><text y="0.32em" transform="translate(682.6010492117202,99)">|</text><text y="0.32em" transform="translate(730.0921440658461,30)">|</text><text y="0.32em" transform="translate(597.4804536498738,605)">|</text><text y="0.32em" transform="translate(635.210214766351,191)">|</text><text y="0.32em" transform="translate(699.27248759211,53)">|</text><text y="0.32em" transform="translate(645.6381819277133,168)">|</text><text y="0.32em" transform="translate(585.3457004712062,513)">|</text><text y="0.32em" transform="translate(661.9935051369644,145)">|</text><text y="0.32em" transform="translate(593.8043369566465,720)">|</text><text y="0.32em" transform="translate(594.9887859032331,651)">|</text><text y="0.32em" transform="translate(541.8149900574884,881)">|</text><text y="0.32em" transform="translate(636.7944275192253,237)">|</text><text y="0.32em" transform="translate(579.6092323780288,674)">|</text><text y="0.32em" transform="translate(514.090726262338,950)">|</text><text y="0.32em" transform="translate(592.2784128531769,628)">|</text><text y="0.32em" transform="translate(606.7734140073992,329)">|</text><text y="0.32em" transform="translate(576.7991886863263,559)">|</text><text y="0.32em" transform="translate(567.3464997364189,697)">|</text><text y="0.32em" transform="translate(536.1158738812987,927)">|</text><text y="0.32em" transform="translate(618.6073859597966,306)">|</text><text y="0.32em" transform="translate(604.9869111356805,352)">|</text><text y="0.32em" transform="translate(603.3256354803895,398)">|</text><text y="0.32em" transform="translate(603.5529907014229,375)">|</text><text y="0.32em" transform="translate(574.1602757511389,789)">|</text><text y="0.32em" transform="translate(635.8490308413607,214)">|</text><text y="0.32em" transform="translate(671.3996024851556,122)">|</text><text y="0.32em" transform="translate(571.6902327985437,444)">|</text><text y="0.32em" transform="translate(556.2052092551081,835)">|</text><text y="0.32em" transform="translate(595.5147598711321,490)">|</text><text y="0.32em" transform="translate(562.292588778934,812)">|</text><text y="0.32em" transform="translate(655.8895138395308,76)">|</text><text y="0.32em" transform="translate(593.4441858412695,536)">|</text><text y="0.32em" transform="translate(608.0694272323572,283)">|</text><text y="0.32em" transform="translate(594.82728800952,421)">|</text><text y="0.32em" transform="translate(556.9897961008885,766)">|</text><text y="0.32em" transform="translate(603.7397502863619,467)">|</text><text y="0.32em" transform="translate(608.5771184198359,582)">|</text><text y="0.32em" transform="translate(629.4688319472541,260)">|</text><text y="0.32em" transform="translate(547.6285210530827,904)">|</text><text y="0.32em" transform="translate(566.9548943751574,858)">|</text><text y="0.32em" transform="translate(592.670706276067,743)">|</text></g></svg>