<?xml version="1.0" encoding="UTF-8" standalone="no"?>
<!DOCTYPE svg PUBLIC "-//W3C//DTD SVG 1.1//EN" "http://www.w3.org/Graphics/SVG/1.1/DTD/svg11.dtd">
<svg width="100%" height="100%" viewBox="0 0 1749 2186" version="1.1" xmlns="http://www.w3.org/2000/svg" xmlns:xlink="http://www.w3.org/1999/xlink" xml:space="preserve" xmlns:serif="http://www.serif.com/" style="fill-rule:evenodd;clip-rule:evenodd;stroke-linejoin:round;stroke-miterlimit:2;">
    <g transform="matrix(1.1515,0,0,1.15245,-132.415,-544.464)">
        <path d="M401.575,1558.09C294.241,1558.32 206.136,1558.64 152.441,1559.06C144.42,1559.12 131.177,1570.32 131.177,1570.32C109.599,1591.9 109.599,1626.93 131.177,1648.51L834.919,2352.26C856.497,2373.83 891.534,2373.83 913.113,2352.26L1616.86,1648.51C1638.43,1626.93 1638.43,1591.9 1616.86,1570.32C1616.86,1570.32 1603.61,1559.12 1595.59,1559.06C1541.89,1558.64 1453.79,1558.32 1346.46,1558.09L1346.46,519.685C1346.46,493.61 1325.29,472.441 1299.21,472.441L448.819,472.441C422.744,472.441 401.575,493.61 401.575,519.685L401.575,1558.09Z"/>
    </g>
</svg>
