<?xml version="1.0" encoding="UTF-8" standalone="no"?>
<!DOCTYPE svg PUBLIC "-//W3C//DTD SVG 1.1//EN" "http://www.w3.org/Graphics/SVG/1.1/DTD/svg11.dtd">
<svg width="100%" height="100%" viewBox="0 0 100 100" version="1.1" xmlns="http://www.w3.org/2000/svg" xmlns:xlink="http://www.w3.org/1999/xlink" xml:space="preserve" xmlns:serif="http://www.serif.com/" style="fill-rule:evenodd;clip-rule:evenodd;stroke-linejoin:round;stroke-miterlimit:2;">
    <g transform="matrix(1.03097,0,0,1.03097,-1.54825,-0.106102)">
        <path d="M74.664,50.133C75.065,51.447 75.849,52.329 77.389,52.355C77.389,52.355 81.097,53.035 80.069,48.862L80.071,48.86C79.583,47.038 80.665,45.163 82.487,44.675C82.487,44.675 83.878,44.302 83.878,44.302C85.7,43.814 87.575,44.897 88.063,46.719C88.063,46.719 93.041,65.294 93.041,65.294C93.437,66.773 94.96,67.653 96.44,67.256C97.92,66.86 98.8,65.337 98.403,63.857L93.426,45.282C92.145,40.5 87.223,37.658 82.441,38.94C82.441,38.94 81.05,39.312 81.05,39.312C79.248,39.795 77.722,40.795 76.588,42.11C76.157,41.666 75.709,41.287 75.251,40.966C73.005,39.392 70.421,39.074 67.825,39.769C67.825,39.769 66.321,40.172 66.321,40.172C64.05,40.781 62.193,42.167 60.96,43.968C58.576,42.094 55.573,41.516 52.639,42.302C52.639,42.302 51.052,42.728 51.052,42.728C49.566,43.126 48.251,43.844 47.161,44.789L43.089,29.59C41.624,24.124 35.996,20.874 30.53,22.339C30.53,22.339 28.851,22.789 28.851,22.789C23.384,24.254 20.135,29.881 21.6,35.348C21.6,35.348 36.782,92.01 36.782,92.01C37.179,93.49 38.702,94.369 40.182,93.973C41.662,93.576 42.541,92.053 42.145,90.573L26.962,33.911C26.29,31.404 27.78,28.823 30.287,28.152C30.287,28.152 31.966,27.702 31.966,27.702C34.473,27.03 37.054,28.52 37.726,31.027C37.726,31.027 44.076,54.725 44.076,54.725L44.131,54.917C44.919,57.598 46.931,57.176 46.931,57.176C46.931,57.176 50.552,57.572 49.454,53.348L49.454,53.347C48.841,51.059 50.201,48.703 52.489,48.09C52.489,48.09 54.076,47.665 54.076,47.665C56.494,47.017 58.748,48.712 59.633,51.819C60.051,53.285 61.573,54.14 63.042,53.734C64.512,53.328 65.379,51.812 64.984,50.34C64.424,48.248 65.667,46.095 67.758,45.535C67.758,45.535 69.262,45.132 69.262,45.132C71.605,44.504 73.57,46.05 74.664,50.133ZM21.05,56.706C15.679,53.513 11.5,48.304 9.756,41.798C6.21,28.561 14.076,14.936 27.313,11.389C40.549,7.842 54.175,15.709 57.721,28.945C57.849,29.423 57.962,29.901 58.061,30.379C58.474,32.38 60.433,33.669 62.433,33.257C64.434,32.844 65.723,30.885 65.311,28.885C65.183,28.265 65.037,27.647 64.871,27.029C60.267,9.847 42.579,-0.365 25.397,4.239C8.214,8.843 -1.998,26.531 2.606,43.713C4.87,52.161 10.295,58.923 17.267,63.069C19.023,64.113 21.296,63.535 22.34,61.779C23.384,60.023 22.806,57.75 21.05,56.706Z"/>
    </g>
</svg>
